<?xml version="1.0" standalone="no"?>
<!DOCTYPE svg PUBLIC "-//W3C//DTD SVG 20010904//EN"
 "http://www.w3.org/TR/2001/REC-SVG-20010904/DTD/svg10.dtd">
<svg version="1.0" xmlns="http://www.w3.org/2000/svg"
 width="700.000000pt" height="700.000000pt" viewBox="0 0 700.000000 700.000000"
 preserveAspectRatio="xMidYMid meet">
<metadata>
Created by potrace 1.14, written by Peter Selinger 2001-2017
</metadata>
<g transform="translate(0.000000,700.000000) scale(0.100000,-0.100000)"
fill="#000000" stroke="none">
<path d="M3479 5836 c-2 -2 -53 -6 -114 -10 -134 -7 -201 -15 -290 -32 -11 -2
-33 -7 -50 -9 -68 -12 -227 -59 -330 -97 -475 -175 -880 -499 -1154 -922 -183
-283 -326 -675 -357 -981 -4 -38 -8 -83 -10 -100 -5 -50 -4 -326 2 -390 7 -83
20 -169 39 -265 3 -14 7 -34 9 -45 23 -121 103 -348 174 -495 149 -309 380
-602 637 -805 28 -22 52 -42 55 -45 37 -38 291 -191 410 -248 170 -80 441
-167 575 -185 22 -3 47 -8 55 -11 15 -4 91 -14 180 -21 57 -5 342 -5 395 0 68
6 209 25 227 31 9 3 25 6 35 8 419 84 834 301 1143 599 273 263 466 562 590
912 29 82 57 176 65 214 2 13 6 30 9 39 3 9 7 28 10 42 2 14 7 43 11 65 12 65
13 68 20 125 13 111 14 138 15 280 1 168 -4 230 -31 395 -55 343 -193 679
-395 961 -139 194 -252 313 -483 506 -98 82 -424 269 -541 310 -25 9 -76 28
-115 42 -82 29 -243 73 -300 81 -22 4 -49 9 -59 12 -43 12 -216 30 -310 32
-55 1 -103 4 -107 6 -3 3 -8 3 -10 1z"/>
</g>
</svg>
